<svg id="visual" viewBox="0 0 900 600" width="900" height="600" xmlns="http://www.w3.org/2000/svg" xmlns:xlink="http://www.w3.org/1999/xlink" version="1.1"><rect x="0" y="0" width="900" height="600" fill="#001220"></rect><path d="M0 420L21.5 424.5C43 429 86 438 128.8 429.5C171.7 421 214.3 395 257.2 389.8C300 384.7 343 400.3 385.8 399.3C428.7 398.3 471.3 380.7 514.2 369.7C557 358.7 600 354.3 642.8 363.7C685.7 373 728.3 396 771.2 396.2C814 396.3 857 373.7 878.5 362.3L900 351L900 601L878.5 601C857 601 814 601 771.2 601C728.3 601 685.7 601 642.8 601C600 601 557 601 514.2 601C471.3 601 428.7 601 385.8 601C343 601 300 601 257.2 601C214.3 601 171.7 601 128.8 601C86 601 43 601 21.5 601L0 601Z" fill="#fa7268"></path><path d="M0 471L21.5 468C43 465 86 459 128.8 457.8C171.7 456.7 214.3 460.3 257.2 463.8C300 467.3 343 470.7 385.8 468.2C428.7 465.7 471.3 457.3 514.2 454.3C557 451.3 600 453.7 642.8 448.3C685.7 443 728.3 430 771.2 425C814 420 857 423 878.5 424.5L900 426L900 601L878.5 601C857 601 814 601 771.2 601C728.3 601 685.7 601 642.8 601C600 601 557 601 514.2 601C471.3 601 428.7 601 385.8 601C343 601 300 601 257.2 601C214.3 601 171.7 601 128.8 601C86 601 43 601 21.5 601L0 601Z" fill="#ef5f67"></path><path d="M0 440L21.5 448.8C43 457.7 86 475.3 128.8 475.8C171.7 476.3 214.3 459.7 257.2 451.5C300 443.3 343 443.7 385.8 448.2C428.7 452.7 471.3 461.3 514.2 467.5C557 473.7 600 477.3 642.8 472C685.7 466.7 728.3 452.3 771.2 449.3C814 446.3 857 454.7 878.5 458.8L900 463L900 601L878.5 601C857 601 814 601 771.2 601C728.3 601 685.7 601 642.8 601C600 601 557 601 514.2 601C471.3 601 428.7 601 385.8 601C343 601 300 601 257.2 601C214.3 601 171.7 601 128.8 601C86 601 43 601 21.5 601L0 601Z" fill="#e34c67"></path><path d="M0 537L21.5 530.5C43 524 86 511 128.8 507C171.7 503 214.3 508 257.2 514.3C300 520.7 343 528.3 385.8 527.2C428.7 526 471.3 516 514.2 511.2C557 506.3 600 506.7 642.8 508.8C685.7 511 728.3 515 771.2 519.2C814 523.3 857 527.7 878.5 529.8L900 532L900 601L878.5 601C857 601 814 601 771.2 601C728.3 601 685.7 601 642.8 601C600 601 557 601 514.2 601C471.3 601 428.7 601 385.8 601C343 601 300 601 257.2 601C214.3 601 171.7 601 128.8 601C86 601 43 601 21.5 601L0 601Z" fill="#d53867"></path><path d="M0 556L21.5 551.3C43 546.7 86 537.3 128.8 540.2C171.7 543 214.3 558 257.2 564.5C300 571 343 569 385.8 566.8C428.7 564.7 471.3 562.3 514.2 560.2C557 558 600 556 642.8 553C685.7 550 728.3 546 771.2 541.2C814 536.3 857 530.7 878.5 527.8L900 525L900 601L878.5 601C857 601 814 601 771.2 601C728.3 601 685.7 601 642.8 601C600 601 557 601 514.2 601C471.3 601 428.7 601 385.8 601C343 601 300 601 257.2 601C214.3 601 171.7 601 128.8 601C86 601 43 601 21.5 601L0 601Z" fill="#c62368"></path></svg>